<svg id="图层_1" data-name="图层 1" xmlns="http://www.w3.org/2000/svg" viewBox="0 0 500 500"><defs><style>.cls-1{fill:#3c7536;}.cls-2{fill:#d65e45;}.cls-3{fill:#ef836b;}.cls-4{fill:#f9cbaa;}</style></defs><title>支付宝红包封面大赛-规范源文件</title><g id="草莓-3"><g id="形状_26-2" data-name="形状 26-2"><path class="cls-1" d="M147.27,390.72s-110.33-25.49-90.51,6.06,72,31.24,114.64,0c0,0-59.69,64.55,12,72.4s-12-90.51-12-90.51,47.57,89,96.53,84.48,8.82-46.75-108.62-96.57S147.27,390.72,147.27,390.72Z"/></g><g id="形状_24-2" data-name="形状 24-2"><path class="cls-2" d="M326.85,47.61c59.07,21.88,149.27,464.93-143.47,357.87C-100.55,301.65,231.52,12.29,326.85,47.61Z"/></g><g id="形状_24_拷贝_2-2" data-name="形状 24 拷贝 2-2"><path class="cls-3" d="M297.55,115.5c47.25,17.84,119.46,379-114.72,291.88C-44.24,322.83,221.3,86.75,297.55,115.5Z"/></g><g id="形状_24_拷贝-2" data-name="形状 24 拷贝-2"><path class="cls-4" d="M252.66,204c28.6,11.93,78.89,237.79-69.13,198.07C34.85,362.16,206.53,184.72,252.66,204Z"/></g><g id="形状_25-2" data-name="形状 25-2"><path class="cls-3" d="M236.26,242.7c11.42,4.08,13.56,158.16-24.21,149.85-12.32-2.68-3.42-28.41-15.08-31.48-14.84-3.92-28.76,15.7-41.62,11.7C140.82,368.22,203.31,231,236.26,242.7Z"/></g></g></svg>